<?xml version="1.0" encoding="utf-8"?>
<!-- Generator: Adobe Illustrator 24.1.1, SVG Export Plug-In . SVG Version: 6.00 Build 0)  -->
<svg version="1.1" id="Слой_1" xmlns="http://www.w3.org/2000/svg" xmlns:xlink="http://www.w3.org/1999/xlink" x="0px" y="0px"
	 viewBox="0 0 47 47" style="enable-background:new 0 0 47 47;" xml:space="preserve">
<g>
	<path d="M22.1,45.7c-0.8-0.1-1.6-0.2-2.4-0.3c-4.8-0.8-8.9-3-12.2-6.5c-3.3-3.5-5.4-7.6-5.9-12.3C0.6,18.7,3.1,12.1,8.9,6.8
		c3.3-3,7.2-4.7,11.6-5.3c6.5-0.8,12.2,0.8,17.2,5c4,3.4,6.5,7.7,7.5,12.8c0.1,0.8,0.2,1.5,0.3,2.3c0,0.1,0.1,0.3,0.1,0.4
		c0,0.9,0,1.8,0,2.8c0,0.1-0.1,0.2-0.1,0.3c-0.3,3.8-1.5,7.3-3.6,10.5c-3.5,5.2-8.4,8.5-14.6,9.6c-0.8,0.2-1.6,0.2-2.5,0.3
		C24,45.7,23,45.7,22.1,45.7z M23.5,3.6c-11,0-19.9,8.9-20,19.9c0,11,8.9,20,19.9,20c11,0,19.9-8.9,20-19.9
		C43.5,12.5,34.6,3.6,23.5,3.6z"/>
	<path d="M27.3,23.5c-1.8-1.6-3.5-3.1-5.3-4.6c-0.8-0.7-1.7-1.5-2.5-2.2c-0.4-0.3-0.6-0.8-0.4-1.3c0.3-0.8,1.2-1,1.8-0.4
		c0.6,0.5,1.2,1.1,1.9,1.6c2.3,2,4.5,4,6.8,6c0.7,0.6,0.7,1.3,0,1.9c-2.9,2.5-5.7,5-8.6,7.5c-0.5,0.4-1,0.5-1.4,0.2
		c-0.4-0.2-0.7-0.7-0.5-1.1c0.1-0.3,0.3-0.6,0.5-0.8c2.4-2.2,4.9-4.3,7.3-6.4C27.1,23.7,27.2,23.6,27.3,23.5z"/>
</g>
</svg>
