<?xml version="1.0" encoding="utf-8"?>
<!-- Generator: Adobe Illustrator 24.1.1, SVG Export Plug-In . SVG Version: 6.00 Build 0)  -->
<svg version="1.1" id="Слой_1" xmlns="http://www.w3.org/2000/svg" xmlns:xlink="http://www.w3.org/1999/xlink" x="0px" y="0px"
	 viewBox="0 0 47 47" style="enable-background:new 0 0 47 47;" xml:space="preserve">
<g>
	<path d="M22.1,45.7c-0.8-0.1-1.7-0.2-2.5-0.3C13.4,44.2,8.5,40.9,5,35.7C2.9,32.5,1.7,29,1.4,25.2c0-0.1,0-0.2-0.1-0.3
		c0-0.9,0-1.8,0-2.8c0-0.1,0.1-0.3,0.1-0.4c0.1-0.8,0.2-1.5,0.3-2.3c1-5.2,3.5-9.5,7.5-12.8c5-4.2,10.8-5.8,17.2-5
		c4.4,0.6,8.3,2.3,11.6,5.3c5.8,5.3,8.3,11.9,7.4,19.7c-0.6,4.8-2.6,8.9-5.9,12.3c-3.4,3.5-7.4,5.7-12.2,6.5
		c-0.8,0.1-1.6,0.2-2.4,0.3C24,45.7,23,45.7,22.1,45.7z M3.6,23.5c0,11,9,19.9,20,19.9c11,0,19.9-9,19.9-20c0-11-9-19.9-20-19.9
		C12.4,3.6,3.5,12.5,3.6,23.5z"/>
	<path d="M19.7,23.5c1.8-1.6,3.5-3.1,5.3-4.6c0.8-0.7,1.7-1.5,2.5-2.2c0.4-0.3,0.6-0.8,0.4-1.3c-0.3-0.8-1.2-1-1.8-0.4
		c-0.6,0.5-1.2,1.1-1.9,1.6c-2.3,2-4.5,4-6.8,6c-0.7,0.6-0.7,1.3,0,1.9c2.9,2.5,5.7,5,8.6,7.5c0.5,0.4,1,0.5,1.4,0.2
		c0.4-0.2,0.7-0.7,0.5-1.1c-0.1-0.3-0.3-0.6-0.5-0.8C25,28.1,22.5,26,20,23.8C19.9,23.7,19.8,23.6,19.7,23.5z"/>
</g>
</svg>
